<?xml version="1.0" encoding="utf-8"?>
<!-- Generator: Adobe Illustrator 25.4.1, SVG Export Plug-In . SVG Version: 6.00 Build 0)  -->
<svg version="1.1" id="Слой_1" xmlns="http://www.w3.org/2000/svg" xmlns:xlink="http://www.w3.org/1999/xlink" x="0px" y="0px"
	 viewBox="0 0 736 736" style="enable-background:new 0 0 736 736;" xml:space="preserve">
<style type="text/css">
	.st0{fill:#EFFFD8;}
	.st1{fill:#00941D;}
	.st2{fill:#230035;}
	.st3{fill-rule:evenodd;clip-rule:evenodd;fill:#230035;}
	.st4{fill-rule:evenodd;clip-rule:evenodd;}
	.st5{fill-rule:evenodd;clip-rule:evenodd;fill:#8A0007;}
	.st6{fill-rule:evenodd;clip-rule:evenodd;fill:#080094;}
	.st7{fill-rule:evenodd;clip-rule:evenodd;fill:#00941D;}
	.st8{fill-rule:evenodd;clip-rule:evenodd;fill:#00476A;}
	.st9{fill-rule:evenodd;clip-rule:evenodd;fill:#5D004A;}
	.st10{fill-rule:evenodd;clip-rule:evenodd;fill:#B10000;}
</style>
<g>
	<path class="st0" d="M166.5,247.8C172.4,193,210,135,210,135l58.9-46l61.7-19.3L389,65l63.8,11.6l49.3,29.9l47.3,45.5l20.5,49
		l15,41.1v50.1l-23,79.5l15.8,42.7L585,448l-7.7,29.4l-30.3,8.4l-22.6,3.3l-6.2,31.2l-3.3,65l-43,40.9l-34.6,34.5l-30.3,10.6
		L363,676l-42.5-8.3L297,651.8l-38.8-33.9l-24.1-27.7l-7.6-48.8l-5.6-46l-34.6-18.6l-19.8-5.9v-30.2l18.5-62.6L166.5,309v-40V247.8z
		"/>
	<g>
		<path class="st1" d="M402.6,280.8c-0.3,5.6,6.6,1.5,2.9-1.6c-0.2-1,1.6-1.6,1.4-1.9c0.3-3.4-9.3-2.9-8.7,3.5l-0.3,3.5
			C399.1,283.3,403.5,276,402.6,280.8z"/>
		<path class="st1" d="M419.3,384.3c2.7-1.9-0.7-4.4-2.4-3.4c-4.3,4.6-1.7-1.1-3.9-2.1c-4.3,2.9,3.7,14,8.4,9.1
			C421.8,385.9,416,386.8,419.3,384.3z"/>
		<path class="st1" d="M478.6,389.4c2.8,7.7,18.6-4.1,9.9-2c-2.5,1.6-2.5,1.6-2.3-0.7c-3-8.6-2.7,6.3-7.1,0.8
			C477.6,385.7,478.3,388,478.6,389.4z"/>
		<path class="st1" d="M433.3,267.1c9.1-0.9-5.9-7.9,4.8-4.3c7.6-1.7-10.6-9.2-10.7,1.8C432.6,262.1,430.6,263.1,433.3,267.1z"/>
		<path class="st1" d="M446.9,259.8c5.6-3.5-0.4,5.5,5.3,3.5c2-4,1.1-4,5.3-0.7C458.8,251.3,440.1,257.9,446.9,259.8z"/>
		<path class="st1" d="M465.8,259.8c1.9,0,2.3,0.3,1.3,0.9c-3.4,3.8,3.2,8,3.2,1.2c1.2-1.7,5.9,6.6,3.7-1.5
			C474.3,254.8,457.2,257.7,465.8,259.8z"/>
		<path class="st1" d="M483.6,261.6c-7.5,3.6,1.1-0.4,0,3.8c-3.6,5.7,1.9,4.7,4,1.1C493.9,278.1,490.9,259,483.6,261.6z"/>
		<path class="st2" d="M574.5,349.8C628.8,200.2,506.6,39.9,352,58.3C199.1,72,125.2,220.5,171.5,357.8
			c18.7,50.8-54.4,107.8,15.8,130.6c5.9,3.7,27.1-2.2,28.6,7.8c14.4,57.1-11.9,99.9,52.6,134.8c41.6,52.2,113.5,65.8,171.2,34.9
			c19.1-26.5,77-58.1,81.3-86.6c7.6-25.9-5.9-62.2,9-88.2c17.1-0.2,38.4-3.3,47.3-13.7C612.5,433.3,549.8,408.4,574.5,349.8z
			 M406.6,81.6c-0.7,0.7-4.6-0.9-4.6-1.8C401.9,78.6,407.2,81,406.6,81.6z M362.2,74.4c-0.4-5.5,14.3-6.1,14.9-2.5
			C381.1,83.2,361.3,86.6,362.2,74.4z M360.7,663c2.3-1.7,2.9-1.5,4.7,1C372.3,671.9,356.6,664.8,360.7,663z M513.6,504.8
			c-5.8,39.9,8.5,86.4-31.7,107.7c-5.4,4-4.5,3.2-4.1-2.5c1.6-4.6-9.1-27-10.7-26.8c1.1,9.7,14.8,28.6,4.8,36.1
			c1.3-9.2,0.9-7.4-3.7-1.5c-1.2-1.7-0.8-22.5-3.3-19.4c-1.1,1.9-1.9,18.9-3.7,15.1c-0.9-6.8,3.1-15.4,4.1-21.7
			c0.5-4.4,0.4-4.4-0.8-1.5c-1.3,2.8-3.7,11.4-5,17.9l-0.6,3c-8.7-24.9-47.5-22.8-54.2,2.4c-1.5,12.6-15.6,9-14.7,11.3
			c10.1,1,9,1.4,5,10.9c2.3-1.5,6.9-4.3,9.2-5.7c6.6,11.1,25.6,14.2,31,1c8.7-10.9-15.3-26.6-10.8-9.5c6,10.6-11,10.3-10.4-0.3
			c3.9-30.5,46.1-15.2,35,12.3c-3.6,16.9-26.4,33.9-40.2,31c1.4-1.4,8.2-19.1,8.9-20.8c-5.9,2.3-9,25.7-20.6,26
			c-4.6,1.2-17.5,0.4-16.6-1c-0.5-0.4,26.6-11.1,16.7-8.5c-17.5-2.6,17-10.1,15.5-12.2c-3.3,0.5-10.4,4.2-15,4.8
			c-7.4,3.5-9.3-6.3-8.2,1.4c7.5,11.8-23.5,17.4-7.2,7.5c3.9,0.2-1.3-2.2-2.3-2c-4.2-1.2-7.5,18.1-9.3,9.2c-1-2.9-5.1-11.8-9.4-8.5
			c-6.3,6.7-9.3-0.4-16.2-0.2c0.4,1.8,8.8,2.6,9.4,5.6c1.5,3.5,2.9-1.7,6.7,1.5c9,3.4-12.1,3.2-14.2,2.4
			c-6.3,1.5-24.6-26.4-12.2-19.6c4,1.5,19.3,7.9,17.9,7.1c-0.4-5.9-22.3-6.8-24.1-12.4c-1.6-1.4-2.6-1.9-2.3-1.1
			c3.7,19,20.5,25.7-1,19.5c-26.1-4.7-45.7-46.5-18.6-58.6c17.1-9.2,34.9,28.4,12.8,23.5c-1.7-1.7-1.6-2.5,0.6-8.1
			c2.4-15.4-20.1,1.3-11,11.4c5.3,10.1,17.3,11.2,27.1,3.1c0.6-4,10.9,6.4,10.1,2.2c-0.5-2.2-4.6-3.9-6.8-4.6
			c3.8-3.5,11.4-5.2,4.6-10c-7.3-27.7-45.1-42.6-59-11c-1-6.9-7.5-29.2-6.4-20.4c0.7,4.1,6.2,24.4,3.3,22.7c-2.3-3.6-2.5-26.3-5.1-9
			c-0.6,0.6-0.9,3.6-0.7,7.2c1.5,16.5-6.2-7.7-4.6,3.8c0.7,2.6,1.1,5.4-1.2,1.3c-8.5-1.8,11.5-39.4,4.6-31.9
			c-2.3,7.8-12.1,22.1-8.4,30.7l-4.5-3.1c-43.7-23.6-23-73.9-33.1-113c22.9,1.7,10.9,62.3,22.4,77c2.9,5,5.6,7.3,4.1,3.5
			c-4.1-3.8,0-58.1-2.9-64.4c2.2-13.3-32.1-32.4-8.6-24.7c36.9,3.9,5.8,76.4,34.1,83c8,3.5,14.7,8.2,23.2,10.6
			c4.9-1.2,10.9,8.4,15.6,4.4c7.4,1.5,18.3,7.5,26.6,6c6.2-2.1,12.3,6.8,18.6,1c3.4-3.8,5.9,2.5,9.9,1.9c4,0.6,6.5-5.7,9.9-1.9
			c6.3,5.8,12.3-3.1,18.6-1c6.5,0.3,16.3-1.6,22-4.5c2.1-2.1,3-2.4,4.5-1.6c5.8,4.4,9.9-5.9,15.4-4.3c8.5-2.1,15.3-7.3,23.5-10.6
			c30.1-11.1-2.6-65.6,27.6-80.2c31.1-12.4-1.7,5.5-2.1,21.9c-2.1,7.7-0.3,61.9-2.6,66.2c9-11.6,10.1-18.9,10.2-43
			C493.8,520.7,516.3,487.8,513.6,504.8z M273.3,562c0.4,18.4-10.3-20.1,1.5-13.3C276.9,551.7,271.4,556.3,273.3,562z M269.6,529.5
			c1.3-9.7,3.5-14.4,5-0.5C276.9,545.4,266,548.2,269.6,529.5z M302,575.3c-0.6,22.3-17.6-23.7,0.5-16.5
			C301.7,563.1,299.4,567.4,302,575.3z M292,549.9c-3.3-2.4,2.6-39.9,8.2-21.5C303.2,536,303.3,558.3,292,549.9z M293.5,555.8
			c-0.5,4.3-3.3,5.8-2.4,13.2C291.7,592.4,276.9,547.1,293.5,555.8z M286,551.4c-2.3,4.6-4.9,5.7-3.6,14.1
			C282.8,588,267.7,543.5,286,551.4z M285.7,524.9c1,5,3.7,20.1-2.9,20.7C275.7,550.6,279.2,512.1,285.7,524.9z M340.9,591.6
			c-15-0.2-13.1-32.3,1.6-24.7C342.2,571,348,591.9,340.9,591.6z M323.7,555.7c0.4-9.5,4.8-37.4,13-30.4
			C348.7,534.6,342.9,579.5,323.7,555.7z M326.6,564.5c4,5.1-1.9,14.4,1.8,20.7C327,607.2,306,549.4,326.6,564.5z M309,531.5
			c2.3-6.1,4.3-7.2,7.3-3.9C335,553.9,293.5,576.5,309,531.5z M314.2,568.8c6.1,26.4-8.8,17.6-10.2-1.5
			C303.7,559.3,317.7,559.6,314.2,568.8z M380.8,563.7c-10.6-3-7.7-52.5,8.7-35C397.5,540,402.8,570.1,380.8,563.7z M383.5,592.8
			c-3.3-6.7,0.1-32.6,12.5-23C403,579.6,390.5,602.2,383.5,592.8z M377.9,568.4c5.3,3-0.1,23.7-4.1,24.8
			C363.1,597.5,357.7,556,377.9,568.4z M350.5,537c4.4-8.8,7-17.1,13.3-10.7C389.6,553.9,335.3,589.5,350.5,537z M356.7,569
			c5,2,5.9,20,3.8,23.8C350.3,606.2,335.9,560.6,356.7,569z M400.4,576.6c0.2-9.6,0.6-13.3,9.3-9.3c8.2,5.8,2.8,25.2-6.8,24.3
			C396.3,590.8,401.6,583.6,400.4,576.6z M429.9,569.3c-1.6-8.8,2.4-8.7,8.9-6.3c3.7,3.3-2.2,24.4-8.9,22.8
			C423.4,586.7,431.7,574.3,429.9,569.3z M424.5,535.3c2.2-8.3,5.5-11.6,8.4-8.1C451.5,550.8,419.6,578.9,424.5,535.3z M425.1,563.5
			c4.2,4.4-1.1,27.5-9.6,26c-1.6-3.4,3.7-15.7,0.1-20.7C415,565.7,422,558.7,425.1,563.5z M409.8,562.4
			c-13.7,1.4-10.3-44.8,2.5-36.8C417.4,532.4,427.6,562.4,409.8,562.4z M465.1,552.7c7.4,2-4.8,32.9-3.5,12.8
			C464.4,556,451.4,546.6,465.1,552.7z M457.2,532.8c0.6-10,3.5-17.3,6.2-6.8C471.1,545.5,455.6,555.4,457.2,532.8z M457.6,557.3
			c3.4,3.8-1.4,18.3-4,18.9C454.2,571.2,446,546.5,457.6,557.3z M443.3,548.1c-3.2-8.3,1.4-36.7,7-19.7
			C454.6,537.4,454.1,561.4,443.3,548.1z M448,560.5c4.3,4,0.3,19.7-3.6,20.7c-7.2,2.1,2-18.5-2.3-19.8
			C439.2,557.2,445.3,556.6,448,560.5z M473.4,549.4c4.6,1-2.8,29.1-2.7,12.6C472.3,556.4,464.1,544.2,473.4,549.4z M470.1,523.5
			c1.3-4.7,2.4-4,3.8,2.4c1.3,6,1.4,13.9,0.2,15.8C470.6,547.3,467.4,533.1,470.1,523.5z M472.8,510.4c-1,7-4.1,5.7-6.5,11.5
			c-1.2-2-3.1-5-5.3-5.1c-4.6-1.6-5.9,12.3-8,8.5c-0.2-2.3-4.5-7.2-7.1-5.7c-4,0.8-5.2,8.9-6.9,11.2c-5-14.2-15.1-8.3-18.7,4.4
			c-2.5-14.9-15.2-20.6-20.8-3.3c-3.8,13.5-11-27.9-25.8-3.7c-8-0.1-15.9-17.8-24.2,2.9c-4.6,16-10.9-30-24-1.2
			c-1.7,5.4-1.9,5.9-4.4-0.2c-9-19.4-14.2,3.8-17.1-0.7c-1.3-11.4-10.5-11.2-14-2.7c-1.4-7.1-8.1-13.9-12.3-4.4
			c-16.9-49.4-45.5-42.6-91.4-45c-40.6-13.9-3.8-60.1,0.3-90.4c10.3,20.6,72.6,39.1,35,65.8c-10.7,10.1-38.6-4.7-21.7-14.5
			c7.1,4.8,20.6,9.8,16.5-4.5c-49.4-39-47.7,75.5,28.1,18.1c1.7,4.3,20.8,2.5,11.4,0.6c-13.6,0.4-9.1-32.8-20.5-38.7
			c-12.4-7.6,21.4-5.7,26.6-7.5c12.1-1,2.8-1-0.5-1.5c-8.6,0.2-36.2,4.8-38.8-0.3c-13.1-5.2,4.8-1.9,7.4-3.2
			c23.6-0.7-17.3-1.9-13.1-2.9c15.5-12.1,48-1.4,61.5,9.7c-15.8-13.2-26.3-22.3-51.7-15.4c-25.6,16.3-47-31.9-35.5-22.7
			c6.8,6.3,19.5,14.3,22.7,14.3c-53.8-52.7-0.5-24.5-8.3-75.5l-1.5-8c1.9,17.8,1.2,39.4-15.7,44.1c-2.9,0.7-2.9,0.7,1.8-4.7
			c4.1-3,13.6-26.9,5.3-11.4c-16.1,28.9-6.6-7.2,1.6-22.1c4.4-9,5.4-10.3,5.9-8.3c0.4,1.4,0.6,0.1,0.6-3.1
			c1.3-15.5-18.4,33-17.3,34.2c-8.5,25.8-4.2-60.5,30.2-72.9c-4.7,0-26.1,12.8-30.1,21.1c-8.4,12.6-2.7-1,2.1-10.5
			c-0.3-8.5,36.5-32.3,20.1-23.3c-21.7,9.4-28.8,43.4-37,61.9c-3.3-4.6,4.3-31.1,8.7-40.5c-4.9,7.4-11.2,23.2-10.4,32.4
			c-6.4,14.4-6.4-45.2,20.2-51.2c10.7-5.3,23.4-6.2,31.5-7.1c-6.8-5.3-43.5,6.4-49.1,18.9l-2.8,3.5c1.9-32.1,30-47.2,61.7-30.5
			c10.8,4.1,11,4.3,11.2,7.5c-1.4,10.9,21.3,25.3,26.7,19.8c-12.1,1.4-33.4-23.2-19.8-16.1c5,5.4,19.1,13,10.3,5.9
			c-27.8-21.8,18.2,5.2,27.1-1.6c3.2-1.4,4.8-6.1-0.1-2.3c-6.8,6.6-20.9-4.3-28.4-6.5c6-0.5,15.5-3.5,17.6-7.8
			c-11.3,4.3-23.4,7.5-43.1-6.4c-58.4-24.7-17.4-0.2-4.1-38c-3.3,7.3-21.4,24.9-33.9,24.7c-1.5-4.2,25.7-17.2,10.6-11.1
			c-6.4,3-6,2.5-2.8-3.6c2.4-8.7,23.6-7.3,25.4-15.3c5.6-12.1-7.2,9.4-20.1,7.2c-0.9-0.8,4.4-7.6,10.8-13.7c28.3-38,89,15,41.3,32.3
			c-10.4-0.7-15.7-12.4-1.7-16.2c6.5-2.7,5.6-13.2-2.8-12.6c-28.5-0.6-25,42.6,2.1,42.6c31.2,6.2,34.1-49.3,36.2-13.7
			c2.1,20.7,3.8,32.9,19.8,38.9c-3.9-5-10.4-13.2-4.2-29.3c14-64.5-96.3-104.4-122.1-17.7c-4.1,9.3-11.9,22-13.4,22
			c7.8-66.1,76.2-127.3,139.2-142c-11.6,8.5-33.3,51.5-45.2,53c-8.3,3.4-16.1-3.3-21.7-6.7c5.4,13,23.9,14.6,36.9,5.7
			c7.4-4.5,4.5-3.9,5.3,4.8c-2.2,5,9,27.4,4.3,14.8c-5.6-9.4-2-31.8,6.8-36.2c0.8,0.9-4.2,17.1-3.3,17.9c0.2-0.2,3.2-8.6,4.3-11.7
			l2.2,4.8c6.5,7.7-12,27.8-5.4,33.6c0-2.3,5.3-31.8,13.8-23.6c28.3,22.7,59.6-37.4,21.3-38.8c-11.5,0.2-13.1,21.5-0.7,14.8
			c12.7-4,0.5,19.3-8,16.6c-29.5-3-0.1-46.6,11.2-41.2c-5.6,5.7,10.8,3.4,11.9,3.2c-0.2-3-11.9-1-10.2-4.5c0.5-3,1.2-3.5,5.3-4
			c5.6-1.2-1.1,2.7,2.7,1.8c3.1,0.9,11.3,3.6,6.2-3c-1.2-1-1.3-1.2-0.1-1.3c1-1.8,1.4-3.1,5.9-4c4.7,0.8,0.2,1.3,0.6,3.7
			c1.4,7.6,11,3.6-4.8,11.6c-3.3,5.8,4.7,0.4,2.9,4.6c-0.9,5.2,5-0.6,4.5-3.4c-0.6-1.5,4.1-8.6,4-5.1c0,2.9,2.4-1.2,4.4,1.2
			c4.8,4.7,2.6-3.4,4.6-0.6c0.8,1.3,1.1,1.3,1.9,0.1c2.4-4.5,4.2,18.2,10.1,11.9c-9.8-4.5,0.4-2.1,0-5.5c0.7-3.4-11.4-7.1-7.1-9
			c3.1,0.6,0.9-1.8,0.1-2.5c0.7-1.6,6.4-3.2,3.8-5.1c0.9-2.4-3-6.4,8.7-1.5c9.6,5.3,16.4,9.6,5.1,15.6c1.4-0.1,10.3-5.6,12.9-7.2
			c20.5,6,38.8,48.7,5.5,42.5c-6.1-2.1-12-19.2-1.7-15c6.1,2.9,9.9-0.3,8.2-7.1c-5.4-15.2-28.7-6.2-26.9,10.3
			c-0.1,20.4,25.3,33.2,41.6,19.3c3.5-2.9,2.9,2.8,6.7,8c6,7.4,2,14.8,4.7,17.1c6.2-6.7-14.4-29.3-3.5-36.9c0.9,0,3.9,7.5,4,9.8
			c2.4,3.5-3.7-17.2-2.8-17.4c10.8,6.2,11.3,30.1,5.3,40.6c5-4.4,6.5-21,6.1-27c8.6,6.7,24.8,11.8,33.3,6.5c3-1.6,9.4-8.4,8.6-9.2
			c-6.8,4.2-12.7,10.3-22.1,6.6c-11.4-1.8-33.6-44.4-44.6-52.9c34.4,9.3,74.7,32.6,96.9,57.6c19.1,19.3,40.1,59.9,42.2,84.4
			c-32.2-67.4-75.4-108.2-134.9-34c-9.8,14,10.4,46.2-3.9,57c-3.4,5.6,11.4-4.4,13.3-10c3.3,2.8,5.7-54.2,9.7-36.5
			c6.2,22.1,32.4,31.5,48.1,15.9c28.8-29.1-38.3-50.2-15.6-21.9c7.8,1.9,9.7,7.3,4.4,12.6c-37.5,13.8-27.8-53.4,10.5-42.2
			c11.1-0.1,32.4,18.7,34.3,26.5c-7.2,1.2-18.8-7.1-21.4-11.2c-0.9,12.6,23.6,9.7,26.7,19.3c3.3,6.6,3.8,5.8-3.1,3.5
			c-13.9-4.8,9,5.2,9.1,8.1c2,3.4,1.8,3.5-5.7,0.9c-13.5-1.8-25.1-21.1-26.9-24c10.7,39,57.3,14.5-3.6,39.5
			c-18.7,10.6-23.9,13.1-38.2,8.2c-13.9-4.7,9.8,6.9,11.2,6.3c-8.7,4.1-22.5,14.3-30.9,2.8c-0.4,21.4,62.6-17.9,30.9,7.4
			c-8.6,10.4,21.8-17.8,13.2-4c-3,10-16.1,11.8-22.6,14.1c1.2,3.1,12.8-0.4,19.2-5.8c4-3.3,7.4-9.7,7.5-14.1
			c2-9.1,44.8-18.3,50.1-12.3c12.9,0.1,29.6,40.5,20,31.9c-6-12.9-42.7-24-49.8-19c30.4-0.4,62.3,20.7,55.5,55.7
			c-2.9,23.1-5.5-28-14.5-31.2c5.6,3.9,16.9,66.7,5,30.3c-7.2-24.7-15-39.6-32.3-50.2c-7.4-3.7-7.8-3.2-0.7,0.9
			c11.2,5.3,26.1,28.1,27.1,38.1c-1.5-7.2-38.2-33.4-31.6-24c5.1,2.6,13.5,11.1,17.9,18c10,3.4,17.8,77.6,9.6,52.6
			c2.8,0.3-20-50.7-17.3-34.2c0,3.3,0.2,4.5,0.6,3.1c3.4-6.4,29.7,69.4,7.5,30.4c-7.9-15.4,0.8,8.3,5.3,11.4
			c4.7,5.4,4.7,5.4,1.8,4.7c-13.4-3.8-17.6-19.6-16.2-34.1l0.5-10l-1.5,8.5c-7.5,50.6,45.4,22.2-8.3,75c2.2,4.3,37.3-31.2,23.6-8.4
			c-11.9,30-31.9,15.2-53.3,14.6l-7.3,0.3c0.1-2.1-0.9-6.4,2.3-4.9c-5.5-7.3-1.6-7.1,7.9-14.7c1.4,1.6,8.4,7.1,3.9,1.7
			c-5.9-2.3,8.7-16.9,9.4-12.6c2.4,1.8,6,1.7-1.3-2.5c2.2-7.6,6.7-19,15.2-8c-4.6-6.9-11.7-6.6-7.6-16.5c0.4-6.9,10-5.5,11.2-11.3
			c-12.1,14.8-14.8-11.9-10.2-10.8c2,0.1,5.3-4.5,6.7-6.4c-5.9,4.4-8.3,9.1-12.4-0.7c-5.3-9,0.6-7.4,1.2-9.9c-3.2-1.9-4.8,4-8.1-1.9
			c-5-5.6-7.7-7.6-2.5-12.6c-2.6-0.7-5.3,6-7.9,2c-3.9-3.6-11.3-6.8-7.5-9.7c2.8-3.3-1.1-4.4-1.7-1.1c-0.8,3-1.7,3-8.6,0.1
			c-6.2-1.7-7-3.7-6-5.1c0.2-0.6,0.7-1.1,1.1-1.5c0.7-0.6,1.5-1.1,2.2-1.6s1.5-0.9,2.3-1.3c-2.6,0.3-5.7,2.1-9.4,6.5
			c-1.4-0.1-2.3-0.3-2.9-0.6c-1-0.3-2-0.3-3-0.5c-0.7-0.1-1.4-0.2-2-0.5c-0.2,0-0.4,0-0.7,0c-7.3,1.9-2.4-12.8-6-3.1
			c1.3,2.4-5.9,2.4-6.8,1.6c-1,0-1.9,0.1-2.9,0.1c-2.7,7.2-12.2-13-8.4-3.3c4.1,4.1-2.9,7.3-4.6,6.4c-0.8,0.2-1.5,0.3-2.3,0.6
			c-1.1,1.3-6.8,2.6-6.9-0.7c-3.4-5.5-3-0.8-1.3,1.8c-1.6,3.9-14,11.6-15.6,4.1c0,0.5-0.1,0.9-0.2,1.2c0.1,0.3,0.1,0.6,0.2,0.9
			c0.1,0.7,0.2,1.4,0.1,2c1.7,0.6,2.2,2.5-3.2,6.3c-5,4.6-5.4,4.9-7.5,3.5c-6.2-3.8-0.8,1.6,0.8,3.3l-3.7,5.6
			c-4.7,8.7-6,3.9-10.4,3.6c5.1,4.2,6.1,7.1,3,14c-0.7,6.5-4.7,2.5-7.6,4.3c5.3,1.5,6.4,0.8,5.8,9c1.2,9.4-3.8,5.4-7.1,10.1
			c-0.8,3.2,8-7.4,9.6,5.7c2,6.8,2,7,0.2,7.5c-1.5,0-6.1,6.9-2.2,3.2c4.3-5.7,9.5,5.6,12.5,9.5c-1.8,1.3-6.6,7.7-1,3.2
			c1.2-4.3,16.1,11.2,11.3,10.6c-1.8,1.4-2.4,6,0.9,1.6c1.6-3.8,7-1.3,6.5,1.2c0,0,0.1,0,0.1,0.1c0.1,0,0.1,0.1,0.2,0.1
			c0,0,0.1,0,0.1,0.1l0,0l0,0c0.3,0.1,0.6,0.2,0.9,0.3c0.3,0.1,0.6,0.2,0.9,0.4c0.1-0.5,0.6-0.5,2.8,0.7c6.6,2.6-0.5,5.7,1.9,7.6
			c2-0.9,2.5-6.2,6-4.5c1.9,0.4,2.7,0.8,3,1.1c0.4,0,0.7,0.1,1.1,0.2c0.6,0.2,1.2,0.6,1.7,0.9c0.3-0.2,0.8-0.3,2,0.1
			c6.8-0.8-1,10,2.4,8c2.7-1.3,1.7-7.3,5.4-6.8c1.5,0,2.6,0.4,3.1,1c1.2,0,2.4,0,3.5,0.2c7.1-3.8,6.9,10.4,7.2,2.8
			c-1.5-4.5,13.8-7,15-3.6c1.2,2.3,5,6.3,4.3,3.7c-0.3-0.2-0.5-0.5-0.8-0.7c-0.3-0.3-0.6-0.7-0.8-1.1c-6.4-4.2,14.6-11.9,13.5-7.7
			c3.4,13.7-20,15.8-26.4,25.2c9.5-2.8,23.5-17.3,36.7-15.8c5.5,0,25.3,4.8,25.3,6.1c-4.5,1.3-40.8,2.8-12.5,2.8l13,0.1
			c-11.2,10.9-37.6,2-50.5,3.9c-7.2,3.3,48-0.2,31.7,8.6c-11.4,5.9-7,39-20.6,38.7c-4.8,0.2-3.1,2.3,2,2.6
			c25.2-11,14.4,12.9,44,13.2c28.6,3.4,40.1-41.3,8.8-43c-23-0.9-18.8,30.5,1.2,13c15.4,8.9-7.8,25.7-21.7,14.4
			c-37.6-27.7,24.5-44.4,35-65.7c1.9,10.8,3.7,17.9,9.5,30.6C615.2,515.9,485.5,446.5,472.8,510.4z M299.8,177.2
			c21.6,15.4-2.2,47.5,9.3,65c-17.9-13.7-11.1-46.8-18.5-65.9c-0.7-10.9,12.1,18.6,11.4,25C307.1,191.3,280.9,157.8,299.8,177.2z
			 M450.9,187.3c-4.6,16.4,0,44.1-16,54.9c11.1-16.3-7.4-39,2.2-55.9c2.1-5.1,19.4-21.8,13.1-12.2c-5.6,5.7-8.3,18.4-8.2,27.2
			C442.6,187.4,459.3,157.2,450.9,187.3z M453.8,359c1.2,0.7,1.7,5.4,0.1,1.9c-0.8-4.2-2.4-0.6-4.2,0.5c-12.5,11.4-3.9-2.2-13.1,7.4
			c-12.1,13.4-11.6-38.4,6.7-32.8c-3.5,5.1-1,4.5,3,1.3c-3.3,11.8,5.1,3,3.3,7.5c-2.2,5.5,5.3-5.4,2.3,1.2c-3.1,4.6,3.6-1.9,4.5-0.4
			C457.8,348,452.5,356.6,453.8,359z M437.5,304.9c0.5,1.7-3.8-4.8-3.8-2c-1.8-0.5,0.1-9.2,3.7-2.9
			C439.8,302.8,436.5,302.7,437.5,304.9z M440.7,311.4c14.4,9.7-7.8,2.8,1.3,7.6c7.5,5.1-3.8,1-2.5,4.7c-2.5,5.6,5.1,6.2,0,5.6
			c-6-1.5,1.9,2.3,0.7,4.3c-15.9,6.8-20.8-9.4-30.8-12.8C403,316.7,432.9,301.7,440.7,311.4z M465,312.4c-0.4-5.5-4.1,1.8-4.8,3.8
			c-1.3-10.9-2-2.8-6.5-6.7c-3.7,8.2-0.7-2.3-5.7,5.3c-2.9-1.2-2.8-11.1-6.5-13c-2.5-1-3.7-4.1-0.6-1.6c4.1,5,3.9-11.8,7.6-11
			c5.8-1.4-1.6-19,12-4.3C470.2,290.2,473.9,312.2,465,312.4z M449.5,336.5c-11.1-9.8,5.5-26.2,15.1-15.3
			C475.5,330.7,458.9,346.8,449.5,336.5z M426,335.2c0,0.2-0.7,0.7-1.6,1C421.4,336.8,426,333.5,426,335.2z M427.4,339.3
			c1.9,1.5,1.9,1.5-0.2,1.5c-3-0.2-1.3,2.6-4.4,1.4C416,340.8,424.3,335.5,427.4,339.3z M460.4,362.2c-0.2,7.9-3.5,4.9-4.4,1.4
			C457.3,362.2,461.8,354.8,460.4,362.2z M458.8,346.1c1.5-3.9,0.8,0.9,3.2,1c4.5,0.4-0.1-1.9,0-4c0-1.4,0.2-1.4,2.3,0
			c6.6,3.8,1.4-7.2,8,0.2c-0.9-1.5-4.2-7.4-0.6-4.4c3.5,2.5-2.9-8,5.2-2.7c12.3,6.8,8.8,16.2,11.6,24.5
			C496.4,376.1,451.3,360.1,458.8,346.1z M488.7,343.4c-0.3,0.3-1.2,0.4-1.9,0.1C484.8,342.7,489.8,342.6,488.7,343.4z M486.7,338.9
			c-1.2-3.4,5-1.2,5.5,0.3C494.6,344,487.6,342.9,486.7,338.9z M471.6,330.8c0.8,0,4.6,0.3,3.9-0.9c-0.6-1.6,4.1-2-0.7-1.4
			c-8.4,1.2,1.4-3.3-1.3-5.7c1-1.3-3.4-0.9-1.7-1.7c0.6-0.2,1.2-0.9,1.2-1.4c-0.9-0.8-5.3,0.3-1.7-2.2c-12.8-3.1,16.5-16,19.8-9
			c2.4,2,6.5,0.2,9.4-0.2C508.9,316.1,482.8,344.3,471.6,330.8z M477.9,301.5c-8.4,6-2.8-8.8,1.8-3.1c0.7,1.5-1,5.9-1.7,7.9
			C478,305.4,479.9,299.2,477.9,301.5z"/>
		<path class="st1" d="M454.6,394.4c-5.4,2.1,1.4-7.5-5.5-4.1c-1.9,0.8,1.9,5.7-1.8,2.3c-2.7-2.4-3.6-2.3-2.8,0.4
			C444.8,401.6,461.4,394.9,454.6,394.4z"/>
		<path class="st1" d="M435,390.5c5.1-1.9-2.9-7-3.2-1.2c-0.5,4.6-2.7-5.6-4-2.1c-2.3,4.1,4.7,10,9.1,7.6
			C444.4,390.2,429.6,393.7,435,390.5z"/>
		<path class="st3" d="M367.9,73.4c-2.8,3.4,4.1,4.5,4.1,1C372,72.4,369.3,71.7,367.9,73.4z"/>
		<path class="st3" d="M388.6,78.3c1.1,2.5-5.3-1.1-1.3,3.4c2.5,2.3-4.8-1.8-2.3,3c-3,7.8,12.7,2.9,9.8,0.8
			c-2.7-0.6,3.4-2.9,0.2-2.7C393.6,83,388,72.6,388.6,78.3z"/>
		<path class="st3" d="M365,92.1c0.1,2.4-2.7,0-3.4,1.6c-0.9,1.4,2.1,8.4,3.3,7.7c1.2-1.2,2,2.8,2,0.6c0.9-2,2.8-1.1,4.7-3.8
			c5-5.9,0.7-3.7-0.6-6.2c-0.1-1.5-0.3-1.5-1.6,0.3C367.7,97,365.3,88.8,365,92.1z"/>
		<path class="st4" d="M351.8,96.5c0.7,0.3,1.6,0.2,1.9-0.1C354.8,95.6,349.8,95.7,351.8,96.5z"/>
		<path class="st3" d="M374.7,101.9c-1.8,1.3-2.5,6.8-3.5,7.9c0.8,1.5-11.3-10.9-8.7-6.8c1.5,2.4,9.7,9.8,10.8,9.8
			C373.3,111.5,380.9,94.9,374.7,101.9z"/>
		<path class="st4" d="M286.5,248.9c0,1.8-12.8,7.3-5.9,7.6c2.7,1-0.5-1.8,1.7-2.3C284.1,253.8,290.2,244.8,286.5,248.9z"/>
		<path class="st4" d="M457.4,250c1,3,11.3,8.7,6.6,4.1C461.8,253.3,452.8,243.7,457.4,250z"/>
		<path class="st4" d="M286.4,257l-1.9,2.3C286.8,258.1,292,251.3,286.4,257z"/>
		<path class="st4" d="M297,255.2c0,0.2,0.7,0.7,1.6,1C301.5,256.8,297,253.5,297,255.2z"/>
		<path class="st4" d="M444.5,255.8c-0.6,1.7,4.7-1.2,1.6-1C445.5,254.8,444.8,255.2,444.5,255.8z"/>
		<path class="st1" d="M246,379.3c3.3-3.5-4.6-4.6-3.6-1c1.1,4.2-3.5-1.6-4.3-3c-1.1,2.7,1.9,6.4,2.1,8.2c3.1,1.6,4.7,2.3,9.8-2.2
			C253.7,376.9,241.7,385.2,246,379.3z"/>
		<path class="st1" d="M296.8,392.4c-3.7,3.5-0.2-1.2-1.8-2.1c-7.1,0.4,1,2.3-7.4,5C290.2,404.1,306,388.8,296.8,392.4z"/>
		<path class="st1" d="M312.2,389.3c0-2.9-3.9-3.2-4.7-1.4c-1.3,3.2,7.2,4.2-0.7,4.3c-6.1,4.2,13,4,9.6-4.6
			C315.8,382,312.7,394.2,312.2,389.3z"/>
		<path class="st1" d="M272.2,262.6c3-3.7,0,1.3,2.6,2.1c7.7,1.6-1.3-5.7,3.5-4.9c8.3-2.1-8.1-5-8.1,0.6
			C268.5,264,269.7,265.3,272.2,262.6z"/>
		<path class="st1" d="M305.8,262.9c5.8-3.2,0.2,2,2.4,3.7c3.8,2.3,4.7-2.9,2.1-4.4c5.6,2.5,9.9,2.6,1.9-3.3
			C308.8,255.9,300.3,264,305.8,262.9z"/>
		<path class="st1" d="M288.4,261.3c3.3-4.5,1.7,5.5,7,3c0.2-1.9-3.3-7.2,1.5-4.5c7.2-0.2-6.8-7.8-8.8-1.4
			C285.3,260.9,285.6,265,288.4,261.3z"/>
		<path class="st1" d="M321.9,268.8c6.4-4.1-2,7,4.7,4.5c2.7-1.7-0.9-7.7,3.8-2.3c1.5,2.4,1.8,2.5,1.6-0.4
			C332.4,260.5,315.5,267.9,321.9,268.8z"/>
		<path class="st1" d="M334.7,277.6c2.6-0.1,6.1,0.4,3.8,1.6c-3.5,2.4,2,7.3,3.2,2.5c0.4-4.1,3,1.5,4.3,2.6c0.1-1.1-0.4-7,1.1-5.9
			c0.8,0.4,0.8,0,0-1.5c-4.1-5.7,1.4,3.2-3.9-0.8C341.3,273.8,335.6,275.1,334.7,277.6z"/>
		<path class="st2" d="M357,327.5c-1.4-8.8,0.3-7.8,5.6-9.5c-5,1.7-13.9-11.8-7.5-15.4c2.7-1.6,4.7-5.4,3.5-6.5
			c-2.8,12.4-17.6-1.8-12.5-7.9c5.9-3.3-16.5,2-11.6-13.5c0.2-4.8-1.8,0.8-2.9,2c-3.8,1.7-7.1-3-11.5-4.8c-3.8-1.7,0.4-4.9-0.7-6.9
			c-4.5,7.9-25.7,2.6-13-8.2c-4,0.6-8.6,12.9-10.7,8.5c-2.9-0.6-10.8,1.2-10.7-2.9c-1.9-8.3,0.1,4.8-4.7,3.2
			c-5.7,0.6-11,3.3-13.3-3.4c-0.4,1.2-5.2-3.8-1.9,0.1c5.7,7.2-0.1,6-5.8,9c-8.2,4.4-5.5-1.4-8.8-2.9c-2.5,3.9,5.9,4.9-4,10.1
			c-2.2,1.3-5.1,6.4-7.8,2.5c-3.2-3-4.6-2.8-1.8,0.2c4.7,1.9-5.3,15.2-8.9,12.8c-2.9-1.8-3.8-0.7-1.3,1.5c4.2,5.8-5.7,20.3-12,9.9
			c1.2,1.7,3.3,5.5,5.3,5.4c5.1-3.8,1.8,24.5-8,12.2c-6-5.2,3.1,5.6,6,5c3-1.5,6.7,17.5,2.1,14.8c-2-0.1-4.3,3.6-5.4,5.4
			c7.6-10.4,12.3,3.5,14.1,9.1c-6.9,4.4-4.4,4.2-0.8,2.2c3.2-2.4,6.6,5.5,8.9,7.2c4.4,4.1-6.6,13.8,3.5,18.2
			c-5.4-2.1-3.7-18.9,3.4-12c2.9,3.7,12.1,5.2,5.7,10.5c-4.9,5,2.4-1.2,1.6,4.1c0.2,2.6,0.2,2.7,0.6,0.3c-3-13,18.1-3,15.3,0.9
			c-1.5,3.3,0.8,2.1,1.8-0.3c0.6-3.3,16.8-1.6,15,3.4c0.8,7.1-0.1-4.9,4.5-3c13.7-0.7,8.6-1.3,18,8c-9.8-12.5,1.2-9.5,6.9-12.5
			c2.9-2.6,6.8,8.3,6.4,3c-3.4-2.6,1.5-6.9,3.4-6.9c8.5-9.2,12.8,3.2,10.5-3.6c-5.2-1.8,10.8-14,11.3-10.6c2.8,2.5,3.8,1.9,1.3-0.7
			c-4.9-6.1,9.1-19.9,12.5-8.4c1.2-5.9-8.3-5-5.6-10.5c3.6-19.4,9.4-6.2,10.9-9.6C360.1,332.4,357,337.5,357,327.5z M309.4,301.3
			c2.2-0.9,0-3.9,1.4-3.1c1.6,0.6,4.5-3.3,5.2-0.2C317.9,301.4,305.7,304.4,309.4,301.3z M315.4,304.3c-0.4,0.8-1,1.5-1.5,1.5
			C312,305,316.3,300.5,315.4,304.3z M280.8,294.8c10.4-9,2.2-22.7,15.1-10.6c14.9,7,9.7,39,3.1,27.1c-3.2,10-3.5-5.6-8-0.2
			c-2.3-0.3-2.6,5.6-4.3,0.4c-0.4-1.9-0.4-1.9-0.6,0.5c-2,10.3-6.6-11.7-11.1-12.5C283,304,278.1,299.4,280.8,294.8z M284.9,336
			c-9.5-9.3,5-23.5,14.7-16.4C312.4,329.5,295.1,347.4,284.9,336z M272.7,298.6c2.3-0.2,1.4,11-0.7,5.7
			C270.6,302.7,267,295.9,272.7,298.6z M245.4,320.8c-3.5-12.5,43.4-18.3,34.2-1c3.7,4.4-5.6,0.4-4.1,3.9c-2.5,5.6,5.1,6.2,0,5.6
			c-5.7-1.4,1.5,2.2,1.1,4C262.3,341.4,254.7,323.8,245.4,320.8z M262,335.2c0,0.2-0.7,0.7-1.6,1C257.4,336.8,262,333.5,262,335.2z
			 M261,341.9c-9.5,2.2-1.8-8,3-2.6C266.4,341.8,260.9,340,261,341.9z M269,372.8c-10.2-11.3-2.3-40.7,9.9-36.4
			c-1.3,1.8-3.7,8.2,1.1,2.9c6.9-6.3-2.5,5,3.5,4.5c0.8,1.6,2.7-0.8,1.9,1.7c-1.6,4.2,4.7-5.9,2.9,0.5c-2.7,6.9,5.6-5.7,4.7-0.6
			C292.6,363.8,277.7,362.5,269,372.8z M297.1,363.8c-1.8-3-0.7,3.1-1.8,3.3c-0.8,0.9-5.3-5.3-5.3-7.2c0.2-2.4,2.8,5,2.9,2.9
			C296.3,354.1,298.8,365.6,297.1,363.8z M296,353.2c-5-16.7,4.5-0.2,2.9-8c-2.5-7.4,4.6,1.4,5.1-2.4c2.1-2.7-1.6-3.3,3.4-1
			c1.4,0-3.8-5.4-0.2-3.2c6,4.3-4.1-8.4,5.6-2.4c14,9.3,8.7,14.5,11.8,24.6C330.4,374.9,294.1,361.2,296,353.2z M322.8,343.5
			c-1.7-0.9,5.2-0.5,2.3-1.6C316.5,332,341.3,341.8,322.8,343.5z M325.1,331.8c-4.2,4-21.7,0.1-14.8-1c2.6,0.1,4.5-3.9,0.5-2.4
			c-9.4,1.4,2.6-3.4-1.3-6c-2.2-2.1,0.4-1,0.5-2.7c-0.3-1.3-6.9,0.8-2.7-2.2C294.2,304.2,367.4,297.7,325.1,331.8z"/>
		<path class="st1" d="M330,380.8c0.2,5.1-4.4-3.4-6.3,0.4c0.2,4.8,3.9,3.1-1.1,6.7C330.7,394.7,334.6,374.1,330,380.8z"/>
		<path class="st5" d="M294.5,289.8c1.2,9-4.5-5.8-2.8,2.5c1.1,7.2-1.8-1.7-4.2,5.1c-2.5,1.6-1.1,8.4,0.5,5c0.3-4.7,3.3,2.2,3.8,3.9
			c0.3-1.4,1.2-6.3,2.3-6.5c0.5,0,0.7,1.2,0.4,2.7c-1.8,6.5,3.2-4.3,2.5,1.2c1.7,6.1,1.6-4.7,2.9-2c1.2,2.5,2-2.3,3.2,0.2
			c4.1,5-4.5-17.4-5.1-10.4c-0.1,1.1-0.6,0.5-1.5-1.5C294.7,286,293.6,285.8,294.5,289.8z"/>
		<path class="st5" d="M316.3,313.5c-4.7,3.8,7.5-0.2-2.8,7.4c2-0.6,11.6-2,5.3,0.9c-4.1,2,5.4-0.8-3.3,5.1c1.4-0.1,7.7-2.7,4.5,0.4
			c-3.6,3.8,5.1-1.7,0.8,3.4c-5,5.6,17-11.4,9.5-9.2c-1.4,0.5-1.2-0.1,0.7-2.2c4.1-4.4-1.1-1.3-2.7-0.8c-4.1,0.9,7.5-7-2.8-2.1
			c-2.8,1.4,1.3-3.8-1.8-2.3C320.8,314.6,320.2,311.6,316.3,313.5z"/>
		<path class="st5" d="M260.8,311c-8.7,2.1,2,3.4-3.8,3.8c-2.7,0.3-4.8-0.2-0.8,1.4c2.4,1,2.5,1.3,1,2.3c-4.1,1.6,7.4,2,2.3,3.3
			c-3.6,1.3,11.8,9.5,7.3,4.6c-4.9-3.2,2.4-2.5,4.7-2.7c-1.4-0.8-5.5-2.7-5.5-4c0.4-1.5,7.7,3.3,3.6-0.4c-3.9-2.3,2.4-1.4,3.9-1.7
			c-0.8-0.5-7.5-2.8-4-2.8c1.1-0.1,1.4-0.4,0.8-0.7C266.1,312.9,278.9,308,260.8,311z"/>
		<path class="st6" d="M286.3,322.4c-6.5,6.4,5.6,0.2,8.2,1.4c-3,1.6-6.9,6.8-1.9,7.8c8.5,0.9-1.9-10.9,6.2-4.5
			C309.3,335.1,295.3,311.2,286.3,322.4z"/>
		<path class="st5" d="M267.7,346.6c-5.4,16.8,3.2,5.9,0,15.7c1-0.8,4.7-6.8,4.3-3c0,1.8,0.2,1.8,2-0.5c4.7-4.9-1.5,3.1,5-0.4
			c1.2,1.2,7.9-8.2,3.8-5.8c-3.7,3.8-1.9-3.1-1.5-5.1c-1,1.4-7.2,6.6-4.5,2.1c4.1-5.9-4.8,2.8-0.7-4.1c1.1-2.1,1-2.1-1.5,0.2
			C269.7,351.4,270.5,338.2,267.7,346.6z"/>
		<path class="st5" d="M312.8,347c2,5.3-9.2-6-4.3,1.8c3.7,7.2-0.9,1.9-2.6-0.5c0.2,1.7,2.9,6.8-0.8,3.1c-5.3-4.9,1.7,4.5-1.4,3.1
			c-3.1-1.1,1.5,3.9-2.8,1.3c-7.5-3.7,13.5,13.1,10.7,5.5c-0.5-1.4-0.4-1.4,1.6,0c3.4,2.3,4.4,1.8,1.8-1c-6.3-6.2,7.8,2.6,1-3.3
			c-5.4-4.8,2,0,0.6-5.6C316.8,347.5,311.8,341.5,312.8,347z"/>
		<path class="st4" d="M252.9,262.5c-2.9,3.4,2.2-0.9,2.1-1.3C255,260.4,254.2,260.9,252.9,262.5z"/>
		<path class="st7" d="M255.6,262.9c-4.1,2.3-2.6,12-0.6,6c0.9-6.1,2.2,0.8,4.4,0.9c6.9-1-4-6.7,2.1-6
			C267.5,263.8,258.1,258.5,255.6,262.9z"/>
		<path class="st4" d="M489,261.2c-0.1,0.3,5,4.7,2.1,1.3C489.8,260.9,489,260.4,489,261.2z"/>
		<path class="st4" d="M321.6,263.7c-0.5,1.6,6.2-1.1,2-0.9C322.8,262.8,321.9,263.2,321.6,263.7z"/>
		<path class="st4" d="M326.8,263.5c0.7,0.3,1.6,0.2,1.9-0.1C329.8,262.6,324.8,262.7,326.8,263.5z"/>
		<path class="st4" d="M419,263.2c0,0.2,0.9,0.6,2,0.9C425.2,264.6,419.2,261.5,419,263.2z"/>
		<path class="st4" d="M330,264.2c-0.1,0.3,5,4.7,2.1,1.3C330.8,263.9,330,263.4,330,264.2z"/>
		<path class="st7" d="M414.2,266.4c-2,0.8-3.7,7.5-0.4,4.1c5-4.5,0.6,2,3.7,2.9c6.5,1.8-1.6-8.5,4.6-4.6
			C428.2,269.4,417.2,261.7,414.2,266.4z"/>
		<path class="st4" d="M237.9,270.5c-2.9,3.4,2.2-0.9,2.1-1.3C240,268.4,239.2,268.9,237.9,270.5z"/>
		<path class="st7" d="M242.4,269.8c-5.6-0.1-4.4,12.7-2,8.7c-0.3-4.5,1.4-0.6,3.9-0.9c6.8-2.8-3-2.6-1.2-4.5
			C247.4,271.5,249.7,268.6,242.4,269.8z"/>
		<path class="st7" d="M497.5,269.8c-4.9,1.4,7.5,2.8,1.8,4.1c-4.7,1.3-0.9,5.3,2.1,3c1.6-1.4,3.2,0.2,2,2c1.8,3.5,4.4-7.7,1.8-9.1
			c-1.3-1.1-1.4-1.1-0.4-0.1C508.8,276.1,499.7,267.1,497.5,269.8z"/>
		<path class="st7" d="M227.5,283.3c-5.8,2.6,1.9,13,1,7.2c-0.4-6.1,1.4,0.1,3.9-1c5.9-4.5-5.8-2.8-0.6-5.7
			C237.4,279.3,229.4,280.4,227.5,283.3z"/>
		<path class="st7" d="M510,281.4c-0.5,0.7,6.7,4.9,2.5,4.1c-5,1.8,0.1,6.5,2.6,1.9c1.4,0.7-0.8,9,2.3,3.7c0.7-3.6,3.2,2.9,2.2-0.6
			C519.7,286.3,514.7,278.8,510,281.4z"/>
		<path class="st4" d="M518.1,282.5c0.7,1.2,1.5,2,1.8,1.7C520.7,283.7,515,278.1,518.1,282.5z"/>
		<path class="st7" d="M347.6,288.7c-0.3,0.5,0.6,1.2,2.1,1.6c6.1,1.3-3.9,1.7-1.1,4.9c2,5.4,5.2-4.2,6,0.3
			C360.5,302.6,354.4,281.9,347.6,288.7z"/>
		<path class="st7" d="M389,289.8c-2.8,1.3-2.2,12.4,0.4,5.7c0.8-4.5,4,5.1,6-0.3c1-2.5,0.2-1.8-1.9-3.2c-1.9-1-1.8-1.1,0.8-1.7
			C400.5,287.9,391.2,286.7,389,289.8z"/>
		<path class="st7" d="M220.6,295.7c-9.4,2.4,1.4,18.2-0.6,9.1c-2.7-4.1,6.3,1.4,5-3c0.5-3.1-3.2-1.6-5-1.3
			C221.3,297.8,227.3,290.8,220.6,295.7z"/>
		<path class="st7" d="M521,295.8c0.6,1.7,4.1,3.6,0,4c-5.4,2.3,0.3,5.1,4,3C517.6,318.1,537,295.6,521,295.8z"/>
		<path class="st7" d="M356.1,303.7c-2.7,1.7,7.1,2.6,0.8,4.4c-4.7,1.6,1.6,5.4,3.2,2.5C365.4,324.6,365.6,297.6,356.1,303.7z"/>
		<path class="st7" d="M383.2,304c-5.1,0.1-2.2,16.5-0.1,8c-0.3-4,2.9,1.9,5.2-0.8c2.3-3.5-7.2-3.5-1.2-5.9
			C390.7,304,385.8,301.9,383.2,304z"/>
		<path class="st4" d="M378.3,306.3c-0.3,0.9-0.3,1.8-0.1,2.1C379.4,308.9,380.4,301.6,378.3,306.3z"/>
		<path class="st4" d="M528,310.2c0,0.2,0.7,0.7,1.6,1C532.5,311.8,528,308.5,528,310.2z"/>
		<path class="st7" d="M213.1,314.4c-7,3.7,6.8,15.2,3.2,7.8c-3.8-5.2,2.7,0.4,3.3-2.9c1.7-5.9-4.6-0.5-4.6-2.8
			C216.7,313.5,218.4,308.9,213.1,314.4z"/>
		<path class="st7" d="M528,313.7c1.4,2.8,1.3,3.1-1.2,2.8c-3.2-0.7-3.2,4.4,0.1,3.5c2.3-0.2,2.3-0.2,0.7,2.3
			c-3.8,6.7,6.1-1.5,5.4-4C533.6,316.8,525.4,307.9,528,313.7z"/>
		<path class="st4" d="M532.6,314.1c0.3,1,0.9,1.5,1.2,1.2C534.7,314.8,531.1,311.1,532.6,314.1z"/>
		<path class="st7" d="M361,322.7c1.9,1.7,3.6,2.2-0.2,2.1c-3.8-0.6-4.1,5.2,0.2,3.7c2.8-0.6,2.9-0.5,2,1.9
			c0.1,7.5,7.8-10.4-1.5-9.4C357.9,320.4,358.8,320.7,361,322.7z"/>
		<path class="st7" d="M379,322.4c-4.3,3,3,15.7,2,7.9c-0.9-2.3-0.8-2.4,2-1.8c4.3,1.6,4-4.2,0.3-3.7c-5.8,0.5,0.6-2.1,1.9-4
			C383.2,320.7,380.2,320.7,379,322.4z"/>
		<path class="st7" d="M212,332.9c-2.8,5.2,3.9,9.4,8.5,8.9c-1.5-0.8-7.2-5.5-3-4.4c3.6,1,2.5-6.8-1-3.6
			C213.1,337.3,216.6,323.7,212,332.9z"/>
		<path class="st7" d="M529.1,331.3c0.2,3.4,0,3.8-1.6,2.5c-3.5-3.2-4.6,4.6-1,3.6c4.2-1-1.6,3.6-3,4.3
			C533.4,344.3,534.5,329,529.1,331.3z"/>
		<path class="st4" d="M364.9,333.5c-3.4,3.9,3.8-2.1,1.7-1.7C366.4,331.8,365.6,332.6,364.9,333.5z"/>
		<path class="st4" d="M377,332.2c-0.1,0.3,5,4.7,2.1,1.3C377.8,331.9,377,331.4,377,332.2z"/>
		<path class="st7" d="M359.4,339.3c3.5,4-2.4,1.7-3.7,3.1c-2.6,4,7.4,2.4,3.1,6.2c-0.7,6.2,11.6-9.5,0.8-11.2
			C357.8,336.8,357.8,336.9,359.4,339.3z"/>
		<path class="st7" d="M382.2,338.4c-7.3,2.6,4.4,16.1,3,10.2c-1.8-1.8-1.5-3.8,0.4-3.1c1.6,0.6,3.7-1.5,2.8-2.9
			c-1.6-1.7-6.3,0.6-3.4-3.9C386.3,336.4,385.2,336.3,382.2,338.4z"/>
		<path class="st4" d="M532,340.5c0.6,0.8-4.5,3-3.4,3.2C530.8,344.3,534.4,338.8,532,340.5z"/>
		<path class="st4" d="M213,342.8c0.8,0.5,2,1,2.5,1C217.1,343.1,209.9,340.4,213,342.8z"/>
		<path class="st7" d="M217,349.1c-3.4,6.3,4,9.3,9.5,8.7c-1.1-0.6-7.8-4.2-4.7-3.9c6,1.3,2.2-7.2-0.8-3.1c0,2.3-1.9,0.8-2.2-1.8
			C218.4,345.3,218.3,346.8,217,349.1z"/>
		<path class="st7" d="M525,349.8c-0.1,3.1-0.2,3.3-1.4,1.7c-3.4-4.6-7.1,1.6-2.3,2.5c4.4,0-2.8,2.8-3.8,3.7
			C532.3,361.3,526.8,342.1,525,349.8z"/>
		<path class="st4" d="M362.1,349.8c-3.4,3-0.3,2.1,1.4,0C365.8,347.3,365.2,347.3,362.1,349.8z"/>
		<path class="st4" d="M380.7,349.9c2.8,2.9,4,1.9,0.5-0.5C378.3,347.4,378.2,347.2,380.7,349.9z"/>
		<path class="st7" d="M353.6,356.3c1.8,5.4-3.6-1.9-4.6,1.5c-3.5,6.4,7.5,0.6,1.8,5.7c-3.9,6.7,10.6-2.3,5.9-6.7
			C354.9,353.3,352.7,352.9,353.6,356.3z"/>
		<path class="st7" d="M388,355.7c-2.8,5.6,1.7,11.1,7.3,10.1c-0.7-1.2-6.6-6-2.4-4.3c4.7,0.9,3.2-7.2-1.1-3.8
			c-1.9,1.2-2,1.1-1.4-1.3C391.2,353.4,389.5,352.9,388,355.7z"/>
		<path class="st4" d="M525.9,358.5c-2.9,3.4,2.2-0.9,2.1-1.3C528,356.4,527.2,356.9,525.9,358.5z"/>
		<path class="st7" d="M225.4,364.1c-1.5,6.5,6.7,11,12.1,6.3c-1.3-0.4-8.4-0.1-4.9-2c3.6-2.5-1.8-7.4-2.8-2.4
			C229.6,371.7,226.4,359.6,225.4,364.1z"/>
		<path class="st7" d="M516,365.5c-1.3,2.7-1.4,2.7-1.8,0.5c-1.8-5.6-6.8,0.5-2.4,2.6c2.8,1-4.5,1.5-5.3,1.8
			C515.1,379.5,523.4,359,516,365.5z"/>
		<path class="st4" d="M386,364.2c-0.1,0.3,5,4.7,2.1,1.3C386.8,363.9,386,363.4,386,364.2z"/>
		<path class="st7" d="M343.3,369c1,8.5-3.3-3-5.7,2.4c-1.9,3.1,1.8,3.2,3.9,4.3c-1.1,0.4-4.5,1.1-4.5,2.2
			C349.1,383.5,345.5,361.9,343.3,369z"/>
		<path class="st7" d="M399.2,368c-8.2,10.4,15.9,13.4,3.3,7.7c1.4-0.7,5-1.5,4.1-3.5c-0.6-7.5-7.1,5.3-6-3
			C401.3,366.5,401,366.2,399.2,368z"/>
		<path class="st4" d="M518.6,370.5c-1.5,3,2.1-0.7,1.2-1.2C519.5,369,518.9,369.5,518.6,370.5z"/>
		<path class="st7" d="M497.5,376.8c-0.9,2,4.2,6.5-1.5,4c-7.5-2.2,5.4,6.8,8,1.5c4.6-3.8-0.6,3.4,1.4,1.3c1.8,0.1,0.5-9.4-0.8-6.6
			C501.2,383.4,501.5,372.8,497.5,376.8z"/>
		<path class="st4" d="M507.1,378.4c0.1,2.8,1.3-0.9,0.5-1.3C507.3,376.7,507,377.3,507.1,378.4z"/>
		<path class="st7" d="M257.6,384.7c-1.3,1.5,2.8,6.3-1.9,2.8c-6.1-3.6-0.7,4.3,2.9,4.7c2.2,1.7,10.5-6.1,6.2-4.6
			C260,392.6,262.1,380.4,257.6,384.7z"/>
		<path class="st4" d="M330.9,388.5c-3.4,3.9,3.8-2.1,1.7-1.7C332.4,386.8,331.6,387.6,330.9,388.5z"/>
		<path class="st4" d="M411,387.2c-0.1,0.3,5,4.7,2.1,1.3C411.8,386.9,411,386.4,411,387.2z"/>
		<path class="st7" d="M273.7,389.4c-1,1.8,3.5,6.3-1.8,3.4c-6.6,0.6,7.1,7.6,9,1.3c5.8-7.5-5.2,2.7-3.2-2.8
			C278.9,387.9,274.9,388.7,273.7,389.4z"/>
		<path class="st4" d="M418.5,389.8c-3.7,0.7-5.2,0.7-0.3,0.9C423.5,390.7,424.7,387.9,418.5,389.8z"/>
		<path class="st7" d="M466.3,391.3c2,6.2-7.8-5.3-4.1,2c1.8,4.9,10.7,4,11.6,0.1c1.2-3.6-7,3.2-3.9-1.5
			C472.7,388.6,464.8,387,466.3,391.3z"/>
		<path class="st3" d="M326.8,392.8c-16.3,4.8-9.6,47.9-30.1,48.3c-12.4,4.2-17.3-25.8-6.6-15.1c1.2,4.6,8.3,4.5,9.8,0.4
			c-0.8-35.7-46.9-1.5-17.7,20.2c-13.4,5.5-20.4,18.1-19.1,32.7c-0.6-13.1,12.4-34.1,25.1-29.8c5.8,0.3-22.3,15-11.2,10.5
			c44.4-26.3-25.4,28.1-9.4,23.3c-0.7-9.3,16.8-14.6,22-21.5c-2,11.2,4.9,30.7,16.4,28.4c-23.8-16.3,14-44.8,13.5-70.5
			c2.1-18.6,4.9-24.5,13.2-27.5C340.6,389.6,328.8,391.2,326.8,392.8z"/>
		<path class="st3" d="M349.3,391.7c-23.4,6.2-8.9,50.2-24.5,62.4c-22,20.9,1.4,55,27,34.6c12-1.9,15.3-9.7,20.2-17.9
			c4.7,13.3,16.7,16.8,29.7,22c23.8,13.1,35-25.5,17.4-38.8c-11-7.4-7.8-47.3-14.6-55.4c-5.8-10.3-21.6-7.8-32.5-1.5
			C365.3,393.7,354.9,389.8,349.3,391.7z M351.5,404.4c-14.5,18.1,22.5,33.2,14.8,8.2c-2.2-4.1-8.6,0.7-6.3,3.7
			c0.5,6.5-9.8-2.4-4.5-8c2.3-8.1,10.8-3.7,16.5-0.5c11.3-11.3,26.3,5.6,12.5,10.7c1.2-13.1-14.5-5.6-6.1,4.9
			c26.9,12.8,10.3-25.9,15.6-21.6c23.1,23.4-35.5,34.8-3.8,63.9c5.7,5.4,6.2,6.2,5,8.1c-2.4,5.8,5.5-3,3.4-5.5
			c1-4.6,11.7-10.3,3.8-16.4c-9.1-6.2-12.3,2.4-4.9,7l-3.4-0.3c-14.8,1.8-2.8-35-0.1-25.7c-0.9,3.1-0.3,8.6,0.8,7.4
			c1.8-2.7,5.2-17.4,6.4-4.2c-0.5,17.3,30.9,38.2,10.1,49.5c-8.8-4.1-23.4-5.1-28-15.2c-5.3-12.6-14.6-14.7-21-2.6
			c-7.2,14.6-12.1,8.8-22.9,15.5c-10,7.6-12.6-3.6-14.4-10.5c1-6.7,18.9-25.7,17.8-36.9c1.3-12.9,4.6,1.8,6.4,4.4
			c1.1,1.2,1.7-4.3,0.8-7.4c2.8-9.6,14,27.8,0.7,25.7c-6.8,0.6,3.4-4.4-0.8-7.9c-4.4-2.8-10.9,1.2-10.9,6.7c-0.5,6.2,6.9,7,6.4,10.9
			c-2.1,2.5,5.8,11.3,3.4,5.5c-1.7-5.2,17.9-18.1,14.2-24.9c0-10.6-9.1-23.4-19.2-28.4c0.4-5.8,2-17.2,5.9-18.6
			C353.3,399.8,353.9,400.8,351.5,404.4z"/>
		<path class="st3" d="M411.4,392.4c10.7,4.2,10.2,10.1,13.1,27.3c-1.1,23.7,34.5,52,16.4,67.5c-7.1,11.4,18.2-7.9,13.5-18.5v-6.9
			l3.1,2.9c8.4,4.2,19.7,15.7,20.2,20.5c7.4-7.2-52.9-48-10.7-25.1c3.7,2.5,4.1,2.6,2.5,0.8c0.4-1.5-18.5-10.5-13.7-11.4
			c14.5-3.4,25.1,16.3,24.9,29.8l0.2-5.2c3.2-17.2-22.2-26-16.6-30.1c29.6-42.4-42.2-37.7-14.6-14.4c4.6-1,8.8-13.8,10.3-1.1
			c-4,22.8-29.2,11.7-29.5-11.1c-3.6-17.4-7.1-24.3-20.7-26.5C408.1,390.9,408.5,391.3,411.4,392.4z"/>
		<path class="st4" d="M298.7,396.8c-2.3,2.9,0.3,2.3,1.3,0C301.6,393.7,300.6,394.8,298.7,396.8z"/>
		<path class="st4" d="M473,396.8c-2.2,1.6,1.2,1,1.5,0C475.3,395.6,474.9,395.6,473,396.8z"/>
		<path class="st4" d="M278.5,397.8c-3.5,1.4,1.7,1.1,2,0C281.2,396.7,281.2,396.7,278.5,397.8z"/>
		<path class="st4" d="M456,397.8c-2.2,1.6,1.2,1,1.5,0C458.3,396.6,457.9,396.6,456,397.8z"/>
		<path class="st4" d="M466.3,398.5c0.9,0.2,2.3,0.2,3,0C471,397.8,463.9,397.8,466.3,398.5z"/>
		<path class="st5" d="M458.5,289.8c0.3,5.8-1.2,1.3-2.6,0c-2-0.2,1.3,6.1-1.3,4.7c-2.4,0.2-5.7,4.7-3.7,8.6
			c1.5,2.2,1.6-6.4,3.1-0.4c0.8,8.7,4.1-8,5-1.3c2.8,1.7,1.3,3.4,3,3.9c1.4,0,0.4-6.3,2-3.5c1.9,3.1,0-3.2,2.5,0.4
			c4.3,5.6-1.6-15.1-4.6-11.2C460.4,293.1,457.4,281.6,458.5,289.8z"/>
		<path class="st5" d="M480.3,313.5c-1.9,0.7-1.6,2.3,0.5,2.3c3.5,0.2-7.9,6.6,0.2,4.3c8.2-0.3-2.6,2.9,1.5,2.6
			c3.9-0.3-2.2,3.2-3,4.2c1.4-0.1,7.7-2.7,4.5,0.4c-3.4,3.8,3.1-1.1,1.6,2c-0.6,4.9,8.4-4.8,9.6-6.8c0.9-1.7,0.8-1.9-0.8-1.3
			c-4.1,1.9,5-5.5,1.4-4.1c-1,0.4-2.6,1-3.5,1.4c-4.1,0.9,7.5-7-2.8-2.1c-2.8,1.4,1.3-3.8-1.8-2.3
			C485.2,314.3,484.5,311.6,480.3,313.5z"/>
		<path class="st5" d="M425,311c-8.9,1.7,1.3,3.4-4.5,3.9c-3.8,0.1-2.8,0.1,0,1.4c1.9,0.9,2.4,1.4,1.3,1.5c-6.7,1.5,6.9,2.5,1.5,4
			c-4.2,1,12.3,9.6,7.5,4.6c-4.9-3.2,2.4-2.5,4.7-2.7c-1.6-0.8-8.9-4.8-3.5-3.6c2.2,0.6,2.8-0.8,0.8-1.6c-0.7-0.3,0.1-0.6,1.7-0.7
			c7.6,0.2-3.1-1.6-1.8-3c1.9-0.2-0.8-3.3,1.9-3C439.5,311,426.6,309.6,425,311z"/>
		<path class="st6" d="M453.2,320.3c-13.7,9.9,8.1-1.4,12.8,10.5C467.3,323.6,460.7,317.3,453.2,320.3z"/>
		<path class="st6" d="M454.5,326.4c-1.8,1.8-1.6,3.3,0.7,4.7C462.4,335,460.2,320.5,454.5,326.4z"/>
		<path class="st5" d="M431.9,345.5c-0.5,0.7-3.8,14.7-0.6,11.4c1.5-1.2,1.6-1,1.2,2c-1.2,6.2,1.2-1.3,2.7-1.1
			c1,0.1,0.9,3.5,0.9,4.5c3-9.5,4.6,1.1,10.9-7.5c3.5-7.2-4.3,3.6-2.3-4.3c2.5-7.8-3.2,2.3-4.7,0.5c0-1.5,2.1-1.9,2-3.4
			c-0.6-1.7-4.2,3.8-2.5-0.8c0.8-2.5,0.8-2.5-1.4-0.6c-2.8,2.8-1.2-0.7-3.5-0.1C432.1,346.8,435.6,338.5,431.9,345.5z"/>
		<path class="st5" d="M476.6,347c2.2,5.5-8.8-6.1-4.1,1.8c1.6,3.2,0.4,4.2-1.5,1.2c-1.8-3,0.1,2.5,0.2,3.3c-2-2-7.9-7.4-3.5-0.5
			c3.8,4.6-2.6-0.6-1.3,2.5c0.4,1.3,0.2,1.4-1.4,0.5c-7.8-3.1,13.2,12.4,10.3,5.3c-1.8-3.4,9.2,5.6,3.6-0.9l-2.4-2.6
			c1.5,0.1,6.6,2.8,3.3-0.5c-4.7-5.8,2.1,0.4,0.8-5.7C480.9,347.3,475.6,341.5,476.6,347z"/>
		<path class="st8" d="M365.3,606c0.6,1.5-2.3,7.8-2.3,9.2c4.9,0.5,1.8-13.9,10.8-3.2C384.8,621.8,363.9,599.7,365.3,606z"/>
		<path class="st8" d="M371,613.8c-13.9,11.4,9,10.9,5,3.5C374.5,614.4,371,612,371,613.8z"/>
		<path class="st8" d="M383.5,617.8c-0.7,1.5,1.6,1.1,1.5,0C385,616.2,384.1,616.7,383.5,617.8z"/>
		<path class="st8" d="M355,618.7c0.4,1.2,3.7,0.3,3.8,2.3c0,2-6.9,1.7-0.8,4.8c1.5,0.4,8.3,5.2,4.5,5c-3.5-0.3,2.4,3.3-0.9,3
			c-5.8,3.2,3,16.9,8,13.9c2.5-2.6-0.6,5.5,1.2,5.1c1.4-0.4-0.6-4.2,1.6-4.6c2.3-0.6-0.5-2.9,2.3-2c1.1,1.4,6-3,4.4-2.9
			c-1,0.5-1.2,0.4-0.7-0.3c0.4-4.7,15.8,8.9,11.9,2.3c-5-6.6,8.8,6.2,1.7-2.3c-3.6-3.5-10.2-0.7-11.7-5.2c-1.8-0.1,1.9-6.8-2.3-7
			c-5-0.8,8-7.3,7-9.4c0.3-4.1-4.8,4-3.5-1.6c-0.7-7.6-5.5,13.8-6.5,7.9c-0.1-2.6-3.4,4.4-3,0.9c0-2.3-5.8-2.1-6.3,0.1
			C363.7,630.5,359.8,613.1,355,618.7z M375,632.8c5.9,8.6-5.2-6.1-8.6,1.2c-1.9,2.1-1.9,2.1,0.3,1.6c1.8-0.5,2.2-0.2,2,1.5
			c3.2,8.5,2.2-5.1,6.6,0.1c2.3,1.7,2.2,3.1-0.5,5.6C361.1,652.8,361.1,622.5,375,632.8z"/>
		<path class="st8" d="M352.1,626.7c-8.2,0.6,0.4,13,1.7,9.8c3.5-3-1.4-5,1.4-4.5C358.5,632.5,355.6,624.3,352.1,626.7z"/>
		<path class="st8" d="M384.5,628.8c3.1,3-2.3,1.4,0.4,3.9C390.7,649.4,399.6,623.8,384.5,628.8z"/>
		<path class="st8" d="M348.9,642.4c-1.2,1.6-1.2,1.7,0.3,1.1c7.3-0.7-3.8,3.9,2,3.3c2.7,0.1,6.2-3,8.3-4.9
			C356,642.5,351.6,639.6,348.9,642.4z"/>
		<path class="st8" d="M354.9,649.1c-5.4,10.8,11.3,6.8,9.3,3.7c-2,0.1-0.3-4.4-2.7-2c-2.4,2.6-0.8-3.2-2.2-2.7
			C357.6,649,356.2,645.4,354.9,649.1z"/>
		<path class="st8" d="M382.6,648.9c1.1,2-4.6-1.5-3,1.3c0.6,2.5-1.9-0.9-3.6,3.6c-1.8,0-1,1.9,1.3,3.1
			C387.8,664.7,384.3,644.2,382.6,648.9z"/>
		<path class="st4" d="M370.5,661.8c1.2,1.9,4.3-1.3,0.9-1C370.6,660.8,370.2,661.3,370.5,661.8z"/>
		<g>
			<g>
				<path class="st9" d="M338.8,205.8c0.2,2.3,0.6,5,1.1,7.2c3.3,16.7,14,34.7,29.7,50.1c3.5,3.4,4.3,4,5.7,4c1.4,0,2.2-0.6,5.7-4
					c15.1-14.7,25.4-31.7,29.3-48.2c1.9-8,2.1-16.7,0.6-24.6c-2.6-14.4-10.3-29.3-22.2-43.2c-4-4.7-10.4-11-11.8-11.8
					c-0.9-0.4-2.2-0.4-3.1,0c-1.4,0.7-7.7,6.9-11.7,11.6c-12.8,14.9-20.7,30.9-22.9,46.6C338.8,195.5,338.6,204.1,338.8,205.8z
					 M348.7,196.9c1.1-8,6.4-15.6,13.8-19.5c12.7-6.8,28.4-2.5,35.9,10c2.7,4.5,4.1,10.7,3.6,15.9c-0.7,6.9-3.5,12.8-8.5,17.5
					c-3.5,3.3-8.1,5.6-12.9,6.7c-1.6,0.3-2.2,0.4-5.5,0.4s-3.8,0-5.5-0.4c-9.3-2.1-16.7-8.6-19.7-17.5
					C348.4,205.7,348.1,201.7,348.7,196.9z M351.7,225.8c0.2,0.1,0.7,0.6,1.2,1c2.5,2.2,5.7,4.2,8.8,5.6c11.9,5.2,25.8,3.1,35.6-5.3
					c0.7-0.6,1.4-1.2,1.5-1.3c0.4-0.3-0.4,1.5-2.3,5c-4.6,8.8-11.2,17.7-19.3,25.8c-1,1-1.9,1.9-2,1.9c-0.2,0-4.6-4.5-6.2-6.2
					c-5-5.6-10.1-12.6-13.5-18.4c-1.1-1.9-4.2-8-4.2-8.2C351.4,225.6,351.6,225.6,351.7,225.8z M352.5,174.3
					c4.4-9.4,11.6-19.4,20.2-28.2l2.5-2.6l1.5,1.5c6.7,6.6,13.5,15.4,18.1,23.3c1.3,2.3,4.2,8,4.2,8.3c0,0.1-0.3-0.2-0.7-0.5
					c-4-3.8-10.3-7.1-15.7-8.3c-3.6-0.8-8.7-1-12-0.5c-6.8,1-12.7,3.6-17.8,8.1c-0.7,0.6-1.3,1-1.3,1
					C351.6,176.2,352,175.3,352.5,174.3z"/>
				<path class="st10" d="M358.5,202.9c0.6,4.9,3.3,9.4,7.4,12.1c1.4,0.9,2.9,1.6,4.8,2.2c1.4,0.4,1.7,0.4,4.5,0.4s3.2,0,4.5-0.4
					c6.8-2.1,11.3-7.5,12.2-14.5c0.4-3.8-0.7-8.2-3.1-11.4c-1-1.4-3.1-3.4-4.5-4.3c-1.6-1-3-1.6-4.9-2.2c-1.4-0.4-1.9-0.4-4.2-0.4
					c-2.1,0-2.8,0.1-3.9,0.4c-1.5,0.4-3.7,1.2-4.2,1.7l-0.4,0.3l0.9,0.6c4.2,2.9,3.7,9.1-0.9,11.2c-1,0.5-1.2,0.5-2.7,0.5
					s-1.8,0-2.6-0.5c-0.5-0.2-1.3-0.7-1.7-1c-0.4-0.3-0.7-0.6-0.8-0.5c0,0-0.1,0.5-0.2,1.1C358.5,199.5,358.4,201.5,358.5,202.9z"/>
			</g>
		</g>
	</g>
</g>
</svg>
