<?xml version="1.0" encoding="utf-8"?>
<!-- Generator: Adobe Illustrator 25.4.1, SVG Export Plug-In . SVG Version: 6.00 Build 0)  -->
<svg version="1.1" id="Слой_1" xmlns="http://www.w3.org/2000/svg" xmlns:xlink="http://www.w3.org/1999/xlink" x="0px" y="0px"
	 viewBox="0 0 2000 2000" style="enable-background:new 0 0 2000 2000;" xml:space="preserve">
<style type="text/css">
	.st0{fill:#D7D0A0;}
</style>
<path d="M362,735v532h1286V735H362z M1187.1,836.9c86.3,11.2,75.2,47.5,123.1,90.4C1377,987,1531,933,1586,951
	c16.3,5.3,11.1,108,0,106c-115-21-266.2,14.8-274,22c-41,38-26.8,61.2-94,79c-234,62-804-8-797-88c-7.8,89.7-65.5-48.6-47.3-81.8
	c-4-60.7,7.7-68.8,53.3-39.2c6.7-6,18.4-15.8,26.4-21.1c1.5-10.8,12-19.5,22.8-19.5C696.1,846.2,951.1,821.7,1187.1,836.9"/>
<g transform="translate(0.000000,1280.000000) scale(0.100000,-0.100000)">
	<path class="st0" d="M16389.2,3277.4c-37.3,783.8-409.8,661.8-561,123c-376.2-162.5-165.7,63.1-166,308
		c16.9,1479.2-2106.6,636.1-3142,741.1c-136.7,70.5-290.7,50.5-380.1,116.9c-248.2,160.4-516.3-113.1-869-2.9
		c-723.2,53.2-1482.3-71.2-2204-103.1c-60-15-331.1,44.4-351-61c-335.1-14.7-545.1-41.8-926-72
		c-1189.7-177.9-2635.7-100-3387.1-801.8c-122.8-149.1-126.3-238.7-223.9-56.2c-625.6,763.8-721.1-1648.5-333-1697.9
		c550.7-116.1,148.7,505.7,581.9,4.9c1578.1-854.2,6109.7-965.4,7929-619.1c597.9,100.7,2308.9-294.9,2781-7.7
		c646.2,218.3,450,592.1,535.9,1060.9c29.1,4.1,142.9-34,187.1-48c16.6-244.6,110.4-464.6,338-337
		C16418.5,2046.5,16383.5,3032.6,16389.2,3277.4z M16281.2,2762.4c-82.9-215.4,58.5-844.7-225.9-848
		c-187.6,89.8-62.8,873-86.1,1200.1C15996.5,4305.4,16438.4,3398.8,16281.2,2762.4z M15845.2,3078.4c-24-622.4-129.9-12.5-236-392
		c-125.9,10.2-71.4-191.2-114-135c-41.5,19.3,25,230.3-60,147c-40.7-41.2-45.8-3.8-76,4c-33.5,0.9-61.5-121.7-74-150
		c-14,0-19,26-13,69c18,114.7-91.1-51.9-117,6c-43.4,61.8-70.5-210.3-80-24c-2.5,171.2-70.1-68.8-86,29c-44.8,100-62.7-61.6-79-3
		c-72.4,116.3-107.8-44.8-103-101c-31.3-26-1.3,147.7-21,154c-120.9-26.8-38.8-173.3-161-70c-22,0-50-36-50-63
		c-39.1-55.7-59.9,146.1-110-19c-6.4-36.2-22.1,5.4-20,32c8.9,81.6-149.9,41.1-197,51c-18.5,1.6-52.8-157.8-64-79
		c3.7,62.1-12.4,34.6-138,28c-165-33.5-216.5-100.1-370-90c-47.9,49.9-93.4-122.5-111-16c-2.7,93-241.7-11.8-107-118
		c148.2-106.4,425.7,89.2,578,35c122.5-20.3,105.1,68.3,260,3c197.6-92.3,616.5,77.8,763,2c89-31,149-33,341-11
		c518.1,34.9,786.2-121.1-277-68.9c-1093.8-11.8-1371.3,51.9-2120.1-284c-124.6,288.6-145.3,1175.4-27,1519
		c615.7-442.7,1887.6-304.8,2284-319.1c239.1,63,333.1,5.2,483,36.1C15927.7,3330.1,15840.9,3244.8,15845.2,3078.4z M15512.2,3506.4
		c-7.9-132-352.6-291.4-182-84c182,195.5,82.4,649.6-117.9,795c-18,39-25,41-75,23c-81.4-19.4-70.4,82.5-194,83
		c-680.8,86.1-1702.4-139-2323-71.9c-106.7,31.8-1040.8,329.9-539,249.9C12958.6,3961.5,15883.3,5301.7,15512.2,3506.4z
		 M15559.2,1760.4c-362.3-740.6-1445.3-584.9-2153-472c9,17.7,226-39.2,264-23.9c-107.4,109.1-1003.1,113.3-962,230.9
		c535.8,186,2826.7-647.3,2613,666.1c39.5,35.3,163.5-242.2,154-75C15491.1,2211.5,15594.2,1862.8,15559.2,1760.4z M15236.2,3558.4
		c-86-271.1-478.8-252.5-701-241c-1156,32.3-1337.8,0-1749,678.9C13422.4,4053.9,15503.1,4501.1,15236.2,3558.4z M15210.2,1891.4
		c-156.1-667.7-1654-311.4-2277-256.1C12882.1,2208.4,15353.7,2536.8,15210.2,1891.4z M12867.2,3473.4
		c-79.3-213.6-28.2,213.9,33,169C12916.2,3642.4,12905.2,3584.4,12867.2,3473.4z M12885.2,1912.4c-43.2,4.5-71.4,177.3-57,220
		C12830.3,2148.2,12946.7,1903.1,12885.2,1912.4z M12819.2,2192.4c-87.2-62.7-36.3,1057.7-14,320
		C12789,2288.6,12859.5,2258.1,12819.2,2192.4z M12779.2,3600.4c-128.1-462.5-111.1-1225.8-18-1718c47.7-202.5-144.2-39.5-151,94
		c-21,1.1-57.6-147.3-67-208c-24.1,25.6-38.7,52.6-44,97c-30.7,135.4-45.1-446-129-87c-65.1,239.5-40.2-64.3-42-107
		c-44.9-26.1-80.9,381.3-89.1,103c20-126.9,22.1-287.6-33-182c-22.3,24.5-43.2,291.4-73,252c-13.5,10.3-2.8-202.7-17-187
		c-26.7-7.9-19.3,302.5-59,176c-31.4-48.7,19.6-287.6,18-366c-65.8,2.3-71.1,454.7-110,475c-72.2-4.6,4.6-169.8-18-155
		c-100.1,260.9-141.2,758.6-128,1095c-84,469.1,370.1,1646.9,122.1,1357c-75.6-91.3-60.2-8.4-36.1,33
		c-72.6,325.9-242.6-721.9-243.9-830c-48.1-66.4-37.2-1740.1-47-1949.9c-34.8-63.2-34.3,441.9-58,350c-24.3-11.6-6.1-321.4-46-220
		c-31.6-2.5-13.8,302.7-26,320.1c-23.2,22-56.4-171.4-84-120.1c-16,27-20-2-17-142c-139.5-655.7-133.4,2514.7,49.1,2571
		c93.8,269.3-63.3,89.9-62.1,151C11762.5,4589.5,12958.8,4116.5,12779.2,3600.4z M12712.2,1630.4c-146.5-94.5-583.7-573.8-717-308
		c96.9,71.6,353.1,114.2,480,251.1C12401.6,1739,12909.8,1819,12712.2,1630.4z M11850.2,1303.4c-80.3,146.8-136,656.9-127,797
		C11799.6,1959.2,11796.9,1475.3,11850.2,1303.4z M11724.2,1157.4c-84-25.1-258.7-52.6-256,81
		C11492.8,1253,11932,1284.6,11724.2,1157.4z M11735.2,2180.4c-93.5,77.5-19.4,892.4-4,931c2,2,4-124,4-280
		C11720.2,2540.7,11776,2135.9,11735.2,2180.4z M11200.2,4237.4c-235.3-273.4,37.6-3773.9-134.9-2370
		c-61.3,111.1-17.3-314.9-39.1-311c-22,14-43,112-53,249c-10,127-13,145-24,125c-71.9-98.4,1.3-534.2,73-640
		c60.2-42.3,240.3-86.4,203-178c-45.7,2-275.1-6.4-270,12c106.1,173.7-94.7,290.6-55.9,553c-148.7,406.9-247.8,2127.1,65.9,2709
		c-454.9-192.7-176.3-1079.7-307-1452c-86.2,438.3,29.9,1213.2,125,1360c94.7,308.8-236.9-114.9-224.9-392
		c-68.7-153.2,120.4-3002.5-73-2036c-65.7-60.2,31.1-620.1,110-604c121.2,120.8,116.9-91.9,145-168c-80.7-63.2-394.9,103.5-264,182
		c64.8,101.9-82.1,163.8-60.9,366c-12.1,149-21.1,194-50.1,243c-181.4,571.7-103.4,1938.3,98,2487c-45.4,29.3-100.3-26.4-108-70
		c-194.7,35.9-253-233.5-290-490c-43.7-195.7,83.7-3562.1-77.1-1890c-9.9,24-10.9,22-27.9-30c-33.1-41.6-6.6-496.8-45-429.1
		c-28,53.1-40,140.1-40,283.1c-1,120-2,129-15,104c-31.9-39.3-39.2-305.2-37-423c-42.7,114.5-61.1,290.2-63,450
		c-54.7-100.3-41.1-365.4-24-475c-122.9,49.1-72.1,347.1-115,461c-47.1,19.8-23.5-373.5-34-411c-77.4,24.7-41.8,368.2-78,389
		c-50-41-59-109-35-276c76.7-447.1-62.1-49.1-64,122c-21,361.1-84.9-21.2-52-160c4.7-94.9-54.9,79.8-53,214
		c-13.3,83.5,2.5,229.8-46,145c-26.6,13.9-14.2-322.1-26-329.1c-39.9-21.3-31.2,553.5-90,370.1c-43.3-49.1,14.8-386.5,21-485
		c-108.8,16-85.5,570.3-150,539c-45.3-12.1,14.1-299.2-42-44c-107.2,564.4-79.2,1669.5,69,2207c-647.8,225-253.2-2490.3-310.1-2720
		c-92.5-7.4-75.9,405.4-105.9,428c-33.4,16.6-19.8-213-34-227c-45.3-14.3-23.8,342-74,219c-43.5,0.1,31.6-476.2,21-442
		c-84.8,106.5-30.2,432.4-137,529c-49.3,292.7-10.4,2183.8,110.1,2299c-367-201.2-160.9-1825.1-197.2-2380
		c39.2-433.6,30.4-512.4-61.9-89c-21,124-22,138-20,1021c-0.2,1182.8,2.1,1004,148,1468c-416-333.4-215-2146.3-216.1-2708
		c-30.3-31.1-73.2,280.6-100.9,400c-72.4-17.2-37-238.8,35-469c31.5-136.5,145.3-76.2,186-206c23.5-84,80.3-131.9,103-30
		c-4.3,81.8,81.3-125.4,113-79c60.1,214.7,159,45.8,250,132.9c38.8,38.1,286-255.2,73-193.9c-237.8,24.3-724,76.5-963,82
		c-78.9,563.9-154.8,1259-126,1688c47.2-177,73.3-1285.4,162.1-1430c134.5-414.7,213.2,37.9,57.9,375
		c-287.9,192.9,175.9,3424.8-133.9,1950c-52.5-273.5-14.4,394.5,83,475c299.5,34.2,934,84.2,1121.9,115c143,21,150,20,150-28
		c-4.2-46,48.8-4.9,132,8c359.3,113.9,1271.9,127.5,1940,120C11237.3,4404.8,11221.9,4350.8,11200.2,4237.4z M11220.2,1933.4
		c-60.8,242.7-53.3,649.2-39,1024c12,478,23,361,32-335C11215.7,2248.3,11228.9,2047.7,11220.2,1933.4z M10846.2,1217.4
		c-108.1,11.1-132.4,415.8-137,472C10735.4,1635.2,10846,1245,10846.2,1217.4z M10716.2,1792.4c-32.9,35.6-50.9,381.7-56,463
		C10692.3,2375.5,10741.2,1764.8,10716.2,1792.4z M10285.2,4104.4c-34.3-45.6-66.6-745.7-112-897c-26.9,234.7-37.4,837.4,112,990
		C10309.2,4219.4,10309.2,4222.4,10285.2,4104.4z M9907.2,1078.4c-721.5,54.2-960.4-93.3-962,104.9
		c-196.7,742.9-161.4,1497-149.9,2231.1c-14.2,257.7-27.8,569.8,136.9,653c-17-58-64-429-87-680c-60.3-325.5-58.3-2506.1,301-2116.1
		c39.8,76.1,37.2-61.4,171-32.9c122.2,18.2,177.8-109.2,208,27c0,24,2,24,38,16c95.7-21.5,133.7-7.3,178,46
		c55.2-100.4,297.8-164.1,344-24C10210.4,1135.4,10556.4,1039.2,9907.2,1078.4z M10281.2,1412.4c-141.7,212.5-99.2,1227.2-119,1589
		C10235.9,2523.2,10235.4,1894.9,10281.2,1412.4z M7795.2,4182.4c-258.9-863.3-176.5-1939.1-47.1-2780
		c-121.6-1.8-65.7,460.5-100,525c-63.5,68.2-40.2-344.2-56-368c-42.7-32.5-30.7,442.9-69,403c-61.9-27.6-19.4-266.9-38-320
		c-35-89-4.7,394-64,208c-13-34-16-73-14-190c-9.1-398.4-27.5,165.3-79,156c-22.4,27.4,1.8-354.4-31-259c-33-5.7-3.8,397-42,355
		c-70.8,49.2-16.1-467-94-326.1c-19,25-21,40-19,167c2,117,1,139-12,139c-22,0-45-42-55-101c-30.2-36.8,61.4-336.5-22-228
		c-33.3,6-17.9,445.6-74,277c-28-34.5-1.6-233.9,3-282c-52.4-177.2-61.2,352.2-79,388c-60.9-106.9-97.1-615.3,162.9-564
		c104.8-21.2,124.3,2,140,79c187.3-165.6,520.8-13.9,579-259c-106.6,50-1598.9,49.8-1462,236.9c7.3,160.2,40.9,40.7,82,3.1
		c58.4-39-70.2,566.4-109,557.1c-48.1-44.1,53-431.6,14-383.1c-207.6,616.1-144,1752.4-1.1,2443
		C6441.8,4042,7911.2,4320.3,7795.2,4182.4z M6120.2,1385.4c-245.6,43-466.8-6.4-443,332c-3.9-67.4,140.7-326.2,122-140
		c-57.9,121.5,133.8-42.5,116-62c58.5,16.2,150.4-8.4,222-98c-77.1,665.9-139.6,1159-58,1484c18.4-356.2-2.4-1166.1,162-1489
		C6310.8,1385.6,6183.9,1381.4,6120.2,1385.4z M6150.2,3667.4c-64.5-622-48.3,16.9-16,131
		C6197.2,4024.2,6176.3,3857.1,6150.2,3667.4z M6094.2,3897.4c-150.8-602.9-120.9-595.4-131-1534c2-608.8,5.6-1004.6-66-306
		c-23.4,238.7-60-139-44-240c-209.8,484.9-136.3,1257-28,2080c-100.7,70.2-120.3-511-140-252c-7.7,55.2,56.7,266.3,92,308
		C5867,3943.4,6239.1,4132,6094.2,3897.4z M5659.2,3881.4c-234.2-719.5-155-1572.1-57-2368c30.8-129.5-217.3,21.5-187,87
		c5.4,82.5,130.1-43.7,145-26c-12.6,118.6-75.7,378.1-81,491c-17,132.8-43.5-0.1-53-33c-44.6-26.4-24.6,200.3-51,195
		c-38.8-41.9-23.2-84-54,51c-56.3,262.9-40.4,1209.2,177,1633C5554.9,3902.3,5722.8,3987.4,5659.2,3881.4z M5643.2,2852.4
		c-17.7-320.6-14.3-582.1,7-728c-53.9,56.5-33.8,51.1-44,278C5556.4,3154.8,5678.4,3574.2,5643.2,2852.4z M5285.2,3516.4
		c-22.4-73.1-13.6-403.8-51-237c-25.3,89.9,24.6,342.1,69,488C5306.5,3689.1,5301.3,3628.7,5285.2,3516.4z M5296.2,1602.4
		c-81.9,44.9-88.8,462.2-78,510C5227.4,2124.4,5318.5,1643.6,5296.2,1602.4z M5226.2,3738.4c-194.4-112.3-24.1-2632.6-152.9-1670
		c-12.1,160-17.1,174-53.1,134c-36.7-43.9,23.4-341.8-3-290c-117.5,283.5-263,2009.4,237.9,1925
		C5255.2,3833.4,5242.2,3788.4,5226.2,3738.4z M5138.2,1575.4c-137.4,19.1-132.5,27-148,117c-39.1,81.9,17.1,54.8,58,75
		c32.7-30.8,31.3-119.6,132-125c20.9,3.8,13.8-56.1,15-73C5195.2,1569.4,5138.2,1575.4,5138.2,1575.4z M4895.2,3497.4
		c-51.2-218.7-35-308.4-61-425C4748.5,3175.8,4990.2,4128.3,4895.2,3497.4z M4892.2,1662.4c-73-14-70.4,410.4-68,460
		C4831.6,2217.8,4894.9,1655.4,4892.2,1662.4z M4781.2,3607.4c-107.7-234,22.6-1066.4-139.9-1111c-3.1-9-1.1-58,4.9-111
		c-5.7-329.8-48,160.8-53,185c-58.8,8.5-18.3-336.6-84-193c-30.2-0.6,14.2,348.3-36,287c-37.9,10.2-18.4-433.3-67-416
		c-96.3,103.2,53.6,694.7-68,626c-17.1-28.7-21-43.2-27,0C4139.3,3127,4770.5,3877.3,4781.2,3607.4z M4663.2,1753.4
		c-86.9,45.2-163.4,92.9-164,166c14.8,32.9,189.5-147.8,202-82c56.4,65,57-88.7,54-133C4755.2,1704.4,4663.2,1753.4,4663.2,1753.4z
		 M4388.2,1987.4c-66.3,22.5-119.6,229-106,255C4310.3,2242.3,4480.3,1917,4388.2,1987.4z M4301.2,2414.4
		c-39.4-56.6-33.1,370.2,6,358C4318.2,2772.4,4312.2,2426.4,4301.2,2414.4z M4130.2,3112.4c-40.8-75.3-28.7-721.4-82-593
		c-46.9,161,1.9,565.7,58,660C4163.7,3283.2,4134.7,3160.8,4130.2,3112.4z M4050.2,1957.4c-221-421.9-376.6,1481.1-12,1477
		C3982.3,2945.6,3887.1,2200.7,4050.2,1957.4z"/>
	<path class="st0" d="M16225.2,3353.4c-53.1,252.3-218.1-100.9-155-398c50.8-296.9-74.6-491.7,3.9-732
		C16269.5,2285.4,16187.9,3177.2,16225.2,3353.4z"/>
	<path class="st0" d="M13396.2,2332.4c-24,0-34,28-25,75c45.9,114.2-185-113.1-139-111c22.8-91.4,32.9-51,111-46
		C13390.8,2224.7,13436.3,2338.3,13396.2,2332.4z"/>
	<path class="st0" d="M6804.2,1742.4c-121.9,505.2-39.9-38.3-78-160c-26.6,12.9-46.6,261.3-42,345
		C6454.1,1696.1,6931.3,1148.5,6804.2,1742.4z"/>
	<path class="st0" d="M6631.2,1532.4c-11.7,47.6-83.4,484.2-106,450c-43.7,0.3,23-227.7-20-230c-39-21.4-35,260.4-70,263
		c-49.4,86-5.4-139.5-16-143c10-258,16-321,35-327C6486.4,1534.7,6659.8,1445.6,6631.2,1532.4z"/>
</g>
</svg>
