<svg xmlns="http://www.w3.org/2000/svg" viewBox="0 0 860.22 949.29"><defs><style>.cls-1{fill:#1e2347;stroke:#333;stroke-width:2px;}.cls-1,.cls-2{stroke-miterlimit:10;}.cls-2{fill:#471e23;stroke:#4a4a4a;stroke-width:4px;}</style></defs><g id="Слой_2" data-name="Слой 2"><path class="cls-1" d="M832,1138.09l-30.14-6-23.55,22.4s-7.71-4.84-15.69,2.51l-8.89,17.59-2,41.41s-20.78-55.61-29.93-118l-5.82-3.5,1.07,37.24-6.39,9.81c-24.48-5.38-40.09-4.88-40.09-4.88s13.67,31.26.93,51.62l7.33,11.41,2.41-2.68c9.29,27.69,40.34,60.72,40.34,60.72L609.93,1381.05l-22.52,7.43-14.9,75.41,76.58-20.43,2.39-26.87,110.4-123.08s17.37,18.68,81.34,38.07c0,0,16.56-13.13,47.63-10.47l-13.26-10.17s-8.89-16.61.86-24.79c0,0,1.83-.69,41.68.42,8.74.25-7.31-14.15-14.71-13.19l-18.66-1.88-13.59.93-47.55,1.91-30.33-9.24-1.81-6.81,18.89-7.23,24.29-1.38-.67.8,98.76-116.25,0-21.1L953,1095l14.56.29,229.75-279.95,36.2-58c-6.52-13.1-3.89-14.89-3.89-14.89l5.57-4.67,2.79,1.12,3.82-3.49,19.13,4,166.52-203.32L1347,579l-74.17,82.69-43.67,20.24-107.4,114.73-10.31,24.95-30.17,17.49-21.37,49.58-22.69-5.84L834.6,1097.93l3.22,33.29.86-1-7.72,8.62" transform="translate(-571.21 -523.48)"/><path class="cls-2" d="M1166.05,1140.45l30.27-5.58,23.22,22.74s7.8-4.75,15.67,2.71l8.63,17.73,1.34,41.46s21.67-55.37,31.78-117.74l5.89-3.42-1.65,37.25,6.25,9.91c24.58-5.06,40.21-4.35,40.21-4.35s-14.17,31.1-1.73,51.64l-7.52,11.33-2.36-2.71c-9.74,27.58-41.32,60.22-41.32,60.22l109.88,124.92,22.43,7.74L1420.8,1470l-76.35-21.47-2-26.92-108.62-124.66s-17.67,18.47-82,37c0,0-16.38-13.36-47.52-11.12l13.43-10s9.15-16.5-.48-24.82c0,0-1.82-.71-41.73-.13-8.75.13,7.53-14.06,14.93-13l18.7-1.63,13.59,1.12,47.58,2.54,30.5-8.84,1.92-6.8-18.8-7.49-24.3-1.7.67.81-97.08-117.66.36-21.12-18.06-18.37-14.59.09L805.29,812.57,769.94,754c6.73-13,4.12-14.85,4.12-14.85l-5.5-4.75-2.81,1.08L762,732l-19.21,3.78L579.2,530l79.91,44,73,83.74,43.4,20.85L881.23,794.82l9.94,25.11,29.94,17.91,20.63,49.9,22.79-5.54,199.54,218-3.74,33.28-.85-1,7.6,8.73" transform="translate(-571.21 -523.48)"/></g></svg>